HIERARCHY
ROOT joint_0
{
	OFFSET 0.000000 0.000000 0.000000
	CHANNELS 6 Xposition Yposition Zposition Zrotation Yrotation Xrotation 
	JOINT joint_1
	{
		OFFSET 7.745728 2.152245 124.869995
		CHANNELS 3 Zrotation Yrotation Xrotation
		JOINT joint_2
		{
			OFFSET -6.359406 2.617477 113.975952
			CHANNELS 3 Zrotation Yrotation Xrotation
			JOINT joint_3
			{
				OFFSET -8.187927 3.340103 113.713013
				CHANNELS 3 Zrotation Yrotation Xrotation
				JOINT joint_4
				{
					OFFSET 2.859222 5.755905 159.680054
					CHANNELS 3 Zrotation Yrotation Xrotation
					JOINT joint_5
					{
						OFFSET 22.724274 2.598469 88.906982
						CHANNELS 3 Zrotation Yrotation Xrotation
						End Site
						{
							OFFSET 0.000000 0.000000 0.000000
						}
					}
				}
				JOINT joint_6
				{
					OFFSET 2.312134 -31.513222 90.723022
					CHANNELS 3 Zrotation Yrotation Xrotation
					JOINT joint_7
					{
						OFFSET -0.486389 -150.827950 -17.660034
						CHANNELS 3 Zrotation Yrotation Xrotation
						JOINT joint_8
						{
							OFFSET 15.633850 -16.961029 -297.395020
							CHANNELS 3 Zrotation Yrotation Xrotation
							JOINT joint_9
							{
								OFFSET 5.600098 1.609863 -262.782959
								CHANNELS 3 Zrotation Yrotation Xrotation
								End Site
								{
									OFFSET 0.000000 0.000000 0.000000
								}
							}
						}
					}
				}
				JOINT joint_10
				{
					OFFSET 1.012756 37.963039 88.243042
					CHANNELS 3 Zrotation Yrotation Xrotation
					JOINT joint_11
					{
						OFFSET -2.397430 150.471996 -20.492065
						CHANNELS 3 Zrotation Yrotation Xrotation
						JOINT joint_12
						{
							OFFSET -10.575745 12.779427 -297.765015
							CHANNELS 3 Zrotation Yrotation Xrotation
							JOINT joint_13
							{
								OFFSET 196.311081 2.689713 -176.286011
								CHANNELS 3 Zrotation Yrotation Xrotation
								End Site
								{
									OFFSET 0.000000 0.000000 0.000000
								}
							}
						}
					}
				}
			}
		}
	}
	JOINT joint_14
	{
		OFFSET 1.244965 -96.891136 -118.152039
		CHANNELS 3 Zrotation Yrotation Xrotation
		JOINT joint_15
		{
			OFFSET -2.982971 -16.401871 -443.439026
			CHANNELS 3 Zrotation Yrotation Xrotation
			JOINT joint_16
			{
				OFFSET -42.052063 -15.386002 -460.966980
				CHANNELS 3 Zrotation Yrotation Xrotation
				JOINT joint_17
				{
					OFFSET 177.916595 102.818184 -88.655001
					CHANNELS 3 Zrotation Yrotation Xrotation
					End Site
					{
						OFFSET 0.000000 0.000000 0.000000
					}
				}
			}
		}
	}
	JOINT joint_18
	{
		OFFSET 1.788635 96.476997 -118.463074
		CHANNELS 3 Zrotation Yrotation Xrotation
		JOINT joint_19
		{
			OFFSET -9.555542 8.093691 -443.574951
			CHANNELS 3 Zrotation Yrotation Xrotation
			JOINT joint_20
			{
				OFFSET -48.427551 9.415819 -460.500023
				CHANNELS 3 Zrotation Yrotation Xrotation
				JOINT joint_21
				{
					OFFSET 204.978119 20.223980 -87.523996
					CHANNELS 3 Zrotation Yrotation Xrotation
					End Site
					{
						OFFSET 0.000000 0.000000 0.000000
					}
				}
			}
		}
	}
}
MOTION
Frames: 7
Frame Time: 0.016667
-609.456299 -35.413216 1138.952026 -4.973447 0.872772 1.017447 0.614261 0.236245 -1.640393 0.725751 -0.090873 0.336860 0.676681 0.104442 -0.260251 -0.107356 0.353363 0.371355 0.000000 0.000000 0.000000 0.644817 -1.075318 3.290167 -0.465738 -0.916642 -6.340458 0.043534 -2.198377 2.050268 0.000000 0.000000 0.000000 -3.190545 -3.256474 -0.223967 -0.784983 -2.958145 2.857673 1.452680 46.887592 -3.124012 0.000000 0.000000 0.000000 -8.419409 -3.362805 -1.851556 -8.712942 3.969968 -3.474945 -8.758461 -1.616987 -3.412901 0.000000 0.000000 0.000000 -3.036070 1.040354 -0.306532 -3.028691 1.013440 -1.007435 -3.003439 0.994671 -1.378775 0.000000 0.000000 0.000000 
-608.090698 -35.599197 1139.441040 -4.879771 1.431982 1.018568 0.768013 0.628271 -1.574837 0.880277 -0.158164 0.293769 0.831471 0.166979 -0.243065 -0.070193 -0.422271 0.331928 0.000000 0.000000 0.000000 1.093268 -0.583942 2.952287 -0.587330 -0.357026 -6.128381 0.049248 -3.586065 2.541554 0.000000 0.000000 0.000000 -2.935952 -3.220565 0.165149 -1.491297 -3.005295 2.540666 0.724744 46.131496 -3.766281 0.000000 0.000000 0.000000 -8.433011 -3.901601 -1.752980 -8.753567 3.983802 -3.500987 -8.801801 -1.613578 -3.435962 0.000000 0.000000 0.000000 -3.067815 0.474444 -0.279405 -3.044955 1.002802 -1.005338 -3.016370 1.065338 -1.391319 0.000000 0.000000 0.000000 
-604.840149 -36.245365 1139.994019 -4.824670 2.229097 1.012037 0.841213 0.417480 -1.973678 0.978226 -0.092343 0.410356 0.918734 0.103069 -0.328141 -0.038839 -1.404607 0.349356 0.000000 0.000000 0.000000 2.161526 0.129475 2.416743 -0.645920 0.485687 -5.362967 0.044498 -4.020779 2.888731 0.000000 0.000000 0.000000 -3.770956 -2.678763 1.260871 -2.137703 -2.430866 1.884521 0.071725 45.316891 -4.856608 0.000000 0.000000 0.000000 -8.458653 -4.473871 -1.623600 -8.801295 3.781120 -3.450012 -8.839254 -1.564335 -3.483185 0.000000 0.000000 0.000000 -3.055433 -0.077968 -0.293198 -3.027433 0.704005 -0.869473 -2.971306 1.257697 -1.391160 0.000000 0.000000 0.000000 
-600.113586 -37.249233 1140.577026 -4.782690 3.251478 0.996273 0.855778 -0.214102 -2.706524 1.036618 0.077550 0.647686 0.958266 -0.061417 -0.490051 -0.002474 -2.646831 0.399007 0.000000 0.000000 0.000000 3.777702 1.035569 1.813854 -0.657768 1.576357 -4.229151 0.038053 -3.776454 3.203978 0.000000 0.000000 0.000000 -5.357185 -1.743176 2.826573 -2.866951 -1.382258 0.971233 -0.660077 44.367531 -6.340131 0.000000 0.000000 0.000000 -8.496665 -5.099625 -1.457112 -8.859157 3.387172 -3.339779 -8.878778 -1.482524 -3.550152 0.000000 0.000000 0.000000 -3.009921 -0.647813 -0.338867 -2.984909 0.146218 -0.622135 -2.882367 1.559816 -1.383061 0.000000 0.000000 0.000000 
-594.627258 -38.303097 1142.004028 -4.768595 4.226939 1.008135 0.836963 -0.881472 -3.604614 1.073070 0.243626 0.910476 0.972965 -0.252010 -0.670520 0.025380 -3.502909 0.429883 0.000000 0.000000 0.000000 5.407046 1.964804 0.906605 -0.696972 2.690490 -2.581557 0.027472 -4.354034 3.680881 0.000000 0.000000 0.000000 -6.732160 -0.733837 4.708454 -3.048071 -0.233585 -0.594940 -0.971129 42.932052 -6.737138 0.000000 0.000000 0.000000 -8.525867 -5.814553 -1.363625 -8.929279 3.268489 -3.195104 -8.920318 -1.196597 -3.739064 0.000000 0.000000 0.000000 -3.010401 -1.399986 -0.335582 -2.972859 0.051037 -0.509366 -2.845354 1.948245 -1.405539 0.000000 0.000000 0.000000 
-588.865112 -39.306999 1145.151978 -4.800757 5.008394 1.045941 0.765786 -1.410117 -4.595508 1.064958 0.320998 1.139198 0.941953 -0.413525 -0.850354 0.019581 -3.394310 0.427164 0.000000 0.000000 0.000000 6.882494 2.855432 -0.607213 -0.788527 3.753262 0.006837 -0.013583 -6.596418 3.842177 0.000000 0.000000 0.000000 -7.374655 0.163768 7.101881 -1.705275 0.859819 -3.400222 0.008174 41.175284 -4.795579 0.000000 0.000000 0.000000 -8.532899 -6.780919 -1.383103 -9.031190 3.900690 -3.033016 -8.977958 -0.493741 -4.185509 0.000000 0.000000 0.000000 -3.097358 -2.493287 -0.206757 -3.018220 0.861823 -0.676218 -2.907816 2.507211 -1.487408 0.000000 0.000000 0.000000 
-582.565857 -40.376583 1149.717041 -4.866319 5.693529 1.084991 0.632160 -1.936123 -5.712305 1.002220 0.351048 1.349141 0.855739 -0.577947 -1.036627 -0.003754 -2.591405 0.372481 0.000000 0.000000 0.000000 8.357079 3.750728 -2.629698 -0.906239 4.838913 3.416838 -0.086043 -9.847827 3.650781 0.000000 0.000000 0.000000 -7.605013 1.171324 9.964641 0.864338 2.173937 -7.118599 2.089761 39.045229 -1.509032 0.000000 0.000000 0.000000 -8.525772 -7.976060 -1.462121 -9.169638 5.092706 -2.845348 -9.072309 0.602216 -4.888176 0.000000 0.000000 0.000000 -3.239224 -3.856801 0.035666 -3.103763 2.287279 -1.041177 -3.048582 3.288148 -1.624776 0.000000 0.000000 0.000000 
